<svg xmlns="http://www.w3.org/2000/svg" width="900" height="200" viewBox="0 0 900 200" role="img" aria-label="Christen George-McFerrin — demand AI studio · AI education, consulting, and builds for modern teams">
  <defs>
    <linearGradient id="aurora" x1="0" y1="0" x2="1" y2="0">
      <stop offset="0" stop-color="#7E55E8"/><stop offset="1" stop-color="#00B595"/>
    </linearGradient>
    <linearGradient id="bolt" x1="0" y1="0" x2="0" y2="1">
      <stop offset="0" stop-color="#7E55E8"/><stop offset="1" stop-color="#00B595"/>
    </linearGradient>
    <radialGradient id="washV" cx="12%" cy="8%" r="55%">
      <stop offset="0" stop-color="#7E55E8" stop-opacity="0.20"/>
      <stop offset="0.6" stop-color="#7E55E8" stop-opacity="0"/>
    </radialGradient>
    <radialGradient id="washT" cx="92%" cy="100%" r="60%">
      <stop offset="0" stop-color="#00B595" stop-opacity="0.16"/>
      <stop offset="0.6" stop-color="#00B595" stop-opacity="0"/>
    </radialGradient>
    <filter id="halo" x="-80%" y="-80%" width="260%" height="260%">
      <feDropShadow dx="0" dy="0" stdDeviation="5" flood-color="#7E55E8" flood-opacity="0.45"/>
      <feDropShadow dx="0" dy="0" stdDeviation="11" flood-color="#00B595" flood-opacity="0.30"/>
    </filter>
  </defs>

  <rect width="900" height="200" fill="#FAF7F2"/>
  <rect width="900" height="200" fill="url(#washV)"/>
  <rect width="900" height="200" fill="url(#washT)"/>

  <g transform="translate(52,68) scale(2.05)" filter="url(#halo)">
    <path d="M18,2 L6,18 L14,18 L13,30 L26,14 L18,14 Z" fill="url(#bolt)"/>
  </g>

  <g transform="translate(124.0,92.0) scale(0.04200,-0.04200)" fill="#1B1A1F"><path transform="translate(0.0,0)" d="M348 -14Q271 -14 212.5 11.0Q154 36 115.0 81.5Q76 127 57.0 189.0Q38 251 38 326Q38 403 58.0 467.0Q78 531 116.5 577.0Q155 623 212.0 648.5Q269 674 343 674Q405 674 453.0 656.5Q501 639 533.0 607.0Q565 575 580.5 532.5Q596 490 594 440L477 420Q476 467 459.0 499.5Q442 532 411.5 549.5Q381 567 339 567Q304 567 273.0 553.0Q242 539 219.0 510.0Q196 481 183.0 437.0Q170 393 170 332Q170 254 191.5 201.0Q213 148 254.0 120.5Q295 93 351 93Q404 93 436.5 115.5Q469 138 484.0 179.0Q499 220 498 272L615 258Q618 202 603.5 153.0Q589 104 556.5 66.5Q524 29 472.5 7.5Q421 -14 348 -14Z"/><path transform="translate(617.2,0)" d="M50 0V273L49 696H177V552Q177 533 175.0 503.5Q173 474 169.0 440.0Q165 406 161.0 372.0Q157 338 153 309H166Q176 387 199.0 437.5Q222 488 260.0 512.0Q298 536 351 536Q438 536 480.0 474.5Q522 413 522 289V0H395V279Q395 355 373.5 390.0Q352 425 307 425Q267 425 238.0 397.5Q209 370 193.0 317.5Q177 265 176 189V0Z"/><path transform="translate(1159.4,0)" d="M50 0V265L49 522H160L154 311H166Q172 390 191.0 439.0Q210 488 240.0 511.0Q270 534 311 534Q325 534 341.0 531.0Q357 528 373 520L367 383Q349 392 331.0 396.5Q313 401 298 401Q261 401 234.5 378.0Q208 355 193.5 311.5Q179 268 176 206V0Z"/><path transform="translate(1522.6,0)" d="M50 0V522H176V0ZM113 583Q75 583 55.0 599.0Q35 615 35 646Q35 677 55.0 693.0Q75 709 113 709Q151 709 171.0 692.5Q191 676 191 645Q191 616 171.0 599.5Q151 583 113 583Z"/><path transform="translate(1724.8,0)" d="M264 -14Q212 -14 168.5 -3.5Q125 7 94.0 29.5Q63 52 46.0 87.0Q29 122 30 170L138 188Q139 152 155.0 128.0Q171 104 200.0 92.5Q229 81 269 81Q315 81 342.5 96.5Q370 112 370 141Q370 162 356.5 174.0Q343 186 316.0 194.5Q289 203 248 212Q205 221 166.5 232.5Q128 244 98.5 261.0Q69 278 52.0 305.0Q35 332 35 373Q35 423 62.0 459.5Q89 496 138.0 516.0Q187 536 252 536Q313 536 362.5 517.0Q412 498 441.5 459.0Q471 420 469 358L361 340Q362 373 348.0 395.5Q334 418 308.0 429.5Q282 441 247 441Q204 441 179.0 424.5Q154 408 154 381Q154 359 169.5 345.5Q185 332 213.5 324.0Q242 316 282 308Q318 301 354.5 291.0Q391 281 422.0 264.0Q453 247 471.5 218.0Q490 189 490 145Q490 96 463.0 60.5Q436 25 385.5 5.5Q335 -14 264 -14Z"/><path transform="translate(2215.0,0)" d="M239 -11Q157 -11 116.5 32.5Q76 76 76 166V421H10L11 511H36Q79 514 97.5 535.0Q116 556 120 598L125 638H200V522H332V418H200V175Q200 136 218.0 119.0Q236 102 267 102Q284 102 301.5 106.5Q319 111 333 121V5Q305 -4 282.0 -7.5Q259 -11 239 -11Z"/><path transform="translate(2551.1,0)" d="M290 -14Q223 -14 174.5 6.0Q126 26 94.0 61.5Q62 97 46.5 145.5Q31 194 31 252Q31 311 46.5 362.5Q62 414 93.0 453.0Q124 492 171.0 514.0Q218 536 281 536Q341 536 386.5 515.5Q432 495 461.0 456.5Q490 418 502.0 365.0Q514 312 507 246L111 241V315L418 320L390 277Q395 328 383.5 362.5Q372 397 346.0 415.5Q320 434 281 434Q239 434 210.5 412.0Q182 390 168.0 350.5Q154 311 154 257Q154 170 189.5 126.5Q225 83 292 83Q323 83 343.5 92.0Q364 101 377.0 115.5Q390 130 396.0 148.5Q402 167 403 186L518 174Q516 137 502.5 103.0Q489 69 461.5 43.0Q434 17 391.5 1.5Q349 -14 290 -14Z"/><path transform="translate(3070.3,0)" d="M50 0V286L49 522H159L152 313H164Q172 389 194.0 438.0Q216 487 254.0 511.5Q292 536 347 536Q435 536 478.5 475.0Q522 414 522 289V0H395V277Q395 353 373.0 389.5Q351 426 304 426Q264 426 235.5 399.0Q207 372 192.0 319.0Q177 266 176 187V0Z"/><path transform="translate(3805.7,0)" d="M316 -14Q234 -14 171.0 26.0Q108 66 73.0 142.0Q38 218 38 325Q38 403 58.0 466.5Q78 530 117.0 576.5Q156 623 214.0 648.5Q272 674 350 674Q410 674 457.5 658.0Q505 642 538.0 612.5Q571 583 588.0 541.5Q605 500 605 448L485 427Q485 474 467.0 505.0Q449 536 417.5 551.5Q386 567 345 567Q294 567 254.5 541.0Q215 515 193.0 462.5Q171 410 171 330Q171 269 184.0 224.0Q197 179 221.5 149.5Q246 120 279.5 106.0Q313 92 354 92Q401 92 433.0 109.0Q465 126 483.5 158.5Q502 191 504 238H383V332H623V218V0H530L537 180H525Q516 117 489.5 74.0Q463 31 419.5 8.5Q376 -14 316 -14Z"/><path transform="translate(4447.9,0)" d="M290 -14Q223 -14 174.5 6.0Q126 26 94.0 61.5Q62 97 46.5 145.5Q31 194 31 252Q31 311 46.5 362.5Q62 414 93.0 453.0Q124 492 171.0 514.0Q218 536 281 536Q341 536 386.5 515.5Q432 495 461.0 456.5Q490 418 502.0 365.0Q514 312 507 246L111 241V315L418 320L390 277Q395 328 383.5 362.5Q372 397 346.0 415.5Q320 434 281 434Q239 434 210.5 412.0Q182 390 168.0 350.5Q154 311 154 257Q154 170 189.5 126.5Q225 83 292 83Q323 83 343.5 92.0Q364 101 377.0 115.5Q390 130 396.0 148.5Q402 167 403 186L518 174Q516 137 502.5 103.0Q489 69 461.5 43.0Q434 17 391.5 1.5Q349 -14 290 -14Z"/><path transform="translate(4967.1,0)" d="M288 -14Q213 -14 155.0 17.0Q97 48 64.0 109.0Q31 170 31 261Q31 354 65.0 415.0Q99 476 157.0 506.0Q215 536 288 536Q362 536 420.0 505.0Q478 474 511.0 413.0Q544 352 544 260Q544 167 510.5 106.0Q477 45 418.5 15.5Q360 -14 288 -14ZM291 83Q331 83 358.5 103.0Q386 123 401.0 161.5Q416 200 416 254Q416 311 400.5 351.0Q385 391 355.5 413.0Q326 435 285 435Q245 435 217.0 414.5Q189 394 174.0 355.5Q159 317 159 263Q159 178 194.0 130.5Q229 83 291 83Z"/><path transform="translate(5518.3,0)" d="M50 0V265L49 522H160L154 311H166Q172 390 191.0 439.0Q210 488 240.0 511.0Q270 534 311 534Q325 534 341.0 531.0Q357 528 373 520L367 383Q349 392 331.0 396.5Q313 401 298 401Q261 401 234.5 378.0Q208 355 193.5 311.5Q179 268 176 206V0Z"/><path transform="translate(5881.5,0)" d="M255 -162Q168 -162 116.0 -148.5Q64 -135 41.5 -110.5Q19 -86 19 -53Q19 -9 54.5 19.0Q90 47 160 57V68Q106 68 77.5 82.5Q49 97 49 126Q49 153 76.0 174.0Q103 195 166 203V215Q106 224 73.5 260.5Q41 297 41 354Q41 404 68.0 442.5Q95 481 146.0 502.5Q197 524 269 524H529V422L356 445V433Q427 421 456.0 393.5Q485 366 485 326Q485 286 461.0 254.5Q437 223 389.5 205.5Q342 188 273 188Q255 188 237.0 189.5Q219 191 198 195Q172 183 159.5 172.5Q147 162 147 153Q147 145 154.5 141.5Q162 138 174.5 136.5Q187 135 202 135H354Q373 135 404.0 132.5Q435 130 466.5 118.0Q498 106 519.5 78.5Q541 51 541 1Q541 -55 509.5 -91.0Q478 -127 415.0 -144.5Q352 -162 255 -162ZM256 -53Q325 -53 362.5 -46.5Q400 -40 415.0 -27.0Q430 -14 430 4Q430 24 420.0 34.5Q410 45 394.5 49.5Q379 54 363.0 55.0Q347 56 334 56H205Q162 43 145.0 28.0Q128 13 128 -7Q128 -27 144.0 -37.0Q160 -47 188.5 -50.0Q217 -53 256 -53ZM268 261Q314 261 339.5 285.0Q365 309 365 349Q365 390 338.5 416.0Q312 442 266 442Q220 442 193.0 416.0Q166 390 166 350Q166 324 178.5 303.5Q191 283 214.0 272.0Q237 261 268 261Z"/><path transform="translate(6418.7,0)" d="M290 -14Q223 -14 174.5 6.0Q126 26 94.0 61.5Q62 97 46.5 145.5Q31 194 31 252Q31 311 46.5 362.5Q62 414 93.0 453.0Q124 492 171.0 514.0Q218 536 281 536Q341 536 386.5 515.5Q432 495 461.0 456.5Q490 418 502.0 365.0Q514 312 507 246L111 241V315L418 320L390 277Q395 328 383.5 362.5Q372 397 346.0 415.5Q320 434 281 434Q239 434 210.5 412.0Q182 390 168.0 350.5Q154 311 154 257Q154 170 189.5 126.5Q225 83 292 83Q323 83 343.5 92.0Q364 101 377.0 115.5Q390 130 396.0 148.5Q402 167 403 186L518 174Q516 137 502.5 103.0Q489 69 461.5 43.0Q434 17 391.5 1.5Q349 -14 290 -14Z"/><path transform="translate(6937.9,0)" d="M20 210V322H296V210Z"/><path transform="translate(7230.0,0)" d="M55 0V660H248L421 144H424L594 660H778V0H659L661 532H657L474 0H357L176 532H172L174 0Z"/><path transform="translate(8040.2,0)" d="M290 -14Q224 -14 175.0 6.5Q126 27 94.0 64.0Q62 101 46.5 150.0Q31 199 31 256Q31 315 47.0 365.5Q63 416 94.5 454.5Q126 493 174.0 514.5Q222 536 286 536Q360 536 408.0 509.0Q456 482 480.0 438.0Q504 394 503 340L389 322Q389 358 376.0 383.0Q363 408 339.5 421.0Q316 434 284 434Q256 434 233.5 424.0Q211 414 194.0 392.5Q177 371 168.0 339.0Q159 307 159 262Q159 203 175.0 163.5Q191 124 221.0 104.0Q251 84 292 84Q334 84 358.0 102.0Q382 120 393.0 148.5Q404 177 403 208L519 196Q520 152 506.5 114.0Q493 76 464.5 47.0Q436 18 392.5 2.0Q349 -14 290 -14Z"/><path transform="translate(8554.4,0)" d="M55 0V660H182V0ZM114 255V361H471V255ZM114 552V660H510V552Z"/><path transform="translate(9061.6,0)" d="M290 -14Q223 -14 174.5 6.0Q126 26 94.0 61.5Q62 97 46.5 145.5Q31 194 31 252Q31 311 46.5 362.5Q62 414 93.0 453.0Q124 492 171.0 514.0Q218 536 281 536Q341 536 386.5 515.5Q432 495 461.0 456.5Q490 418 502.0 365.0Q514 312 507 246L111 241V315L418 320L390 277Q395 328 383.5 362.5Q372 397 346.0 415.5Q320 434 281 434Q239 434 210.5 412.0Q182 390 168.0 350.5Q154 311 154 257Q154 170 189.5 126.5Q225 83 292 83Q323 83 343.5 92.0Q364 101 377.0 115.5Q390 130 396.0 148.5Q402 167 403 186L518 174Q516 137 502.5 103.0Q489 69 461.5 43.0Q434 17 391.5 1.5Q349 -14 290 -14Z"/><path transform="translate(9580.8,0)" d="M50 0V265L49 522H160L154 311H166Q172 390 191.0 439.0Q210 488 240.0 511.0Q270 534 311 534Q325 534 341.0 531.0Q357 528 373 520L367 383Q349 392 331.0 396.5Q313 401 298 401Q261 401 234.5 378.0Q208 355 193.5 311.5Q179 268 176 206V0Z"/><path transform="translate(9944.0,0)" d="M50 0V265L49 522H160L154 311H166Q172 390 191.0 439.0Q210 488 240.0 511.0Q270 534 311 534Q325 534 341.0 531.0Q357 528 373 520L367 383Q349 392 331.0 396.5Q313 401 298 401Q261 401 234.5 378.0Q208 355 193.5 311.5Q179 268 176 206V0Z"/><path transform="translate(10307.2,0)" d="M50 0V522H176V0ZM113 583Q75 583 55.0 599.0Q35 615 35 646Q35 677 55.0 693.0Q75 709 113 709Q151 709 171.0 692.5Q191 676 191 645Q191 616 171.0 599.5Q151 583 113 583Z"/><path transform="translate(10509.4,0)" d="M50 0V286L49 522H159L152 313H164Q172 389 194.0 438.0Q216 487 254.0 511.5Q292 536 347 536Q435 536 478.5 475.0Q522 414 522 289V0H395V277Q395 353 373.0 389.5Q351 426 304 426Q264 426 235.5 399.0Q207 372 192.0 319.0Q177 266 176 187V0Z"/></g>
  <g transform="translate(125.0,128.0) scale(0.02300,-0.02300)" fill="#54515E"><path transform="translate(0.0,0)" d="M238 -14Q179 -14 132.5 17.0Q86 48 59.0 110.0Q32 172 32 264Q32 351 56.5 411.5Q81 472 126.5 504.0Q172 536 234 536Q284 536 320.0 515.0Q356 494 378.5 452.5Q401 411 411 349H424Q418 387 413.5 420.5Q409 454 406.5 484.5Q404 515 404 540V696H531L530 221L531 0H420L424 163H413Q401 105 378.0 65.5Q355 26 320.0 6.0Q285 -14 238 -14ZM277 91Q307 91 331.0 105.0Q355 119 371.0 143.0Q387 167 395.5 196.0Q404 225 404 255V265Q404 287 398.5 310.0Q393 333 383.0 354.5Q373 376 357.5 392.5Q342 409 322.0 419.0Q302 429 277 429Q241 429 215.0 407.0Q189 385 175.0 346.5Q161 308 161 258Q161 209 175.0 171.0Q189 133 214.5 112.0Q240 91 277 91Z"/><path transform="translate(568.0,0)" d="M290 -14Q223 -14 174.5 6.0Q126 26 94.0 61.5Q62 97 46.5 145.5Q31 194 31 252Q31 311 46.5 362.5Q62 414 93.0 453.0Q124 492 171.0 514.0Q218 536 281 536Q341 536 386.5 515.5Q432 495 461.0 456.5Q490 418 502.0 365.0Q514 312 507 246L111 241V315L418 320L390 277Q395 328 383.5 362.5Q372 397 346.0 415.5Q320 434 281 434Q239 434 210.5 412.0Q182 390 168.0 350.5Q154 311 154 257Q154 170 189.5 126.5Q225 83 292 83Q323 83 343.5 92.0Q364 101 377.0 115.5Q390 130 396.0 148.5Q402 167 403 186L518 174Q516 137 502.5 103.0Q489 69 461.5 43.0Q434 17 391.5 1.5Q349 -14 290 -14Z"/><path transform="translate(1097.9,0)" d="M50 0V282L49 522H158L152 313H164Q173 392 194.0 441.0Q215 490 249.5 513.0Q284 536 332 536Q382 536 413.5 511.0Q445 486 459.5 436.5Q474 387 473 313H484Q492 391 514.5 440.0Q537 489 573.0 512.5Q609 536 658 536Q699 536 729.5 520.5Q760 505 781.0 474.0Q802 443 812.0 396.5Q822 350 822 288V0H695V273Q695 324 686.5 357.5Q678 391 660.5 407.5Q643 424 616 424Q581 424 554.5 396.5Q528 369 513.5 318.5Q499 268 498 196V0H374V275Q374 326 365.0 358.5Q356 391 338.5 407.5Q321 424 294 424Q260 424 234.0 398.0Q208 372 192.5 321.0Q177 270 177 195V0Z"/><path transform="translate(1950.9,0)" d="M181 -14Q139 -14 104.5 1.5Q70 17 49.0 48.5Q28 80 28 131Q28 176 45.0 205.5Q62 235 93.0 253.5Q124 272 165.0 282.5Q206 293 253 300Q301 309 326.0 314.5Q351 320 360.5 329.0Q370 338 370 355Q370 392 344.5 413.0Q319 434 276 434Q249 434 223.5 424.5Q198 415 180.5 392.5Q163 370 160 331L46 349Q50 401 70.5 437.0Q91 473 124.0 494.5Q157 516 197.0 526.0Q237 536 279 536Q349 536 397.0 511.0Q445 486 469.5 435.5Q494 385 494 310V214Q494 179 495.0 143.0Q496 107 496.5 71.0Q497 35 498 0H386Q386 37 386.0 74.5Q386 112 386 154H377Q368 107 342.0 69.0Q316 31 275.0 8.5Q234 -14 181 -14ZM228 82Q251 82 274.5 91.0Q298 100 318.5 118.0Q339 136 353.0 164.0Q367 192 371 230V273L397 275Q385 261 362.5 253.0Q340 245 312.5 240.5Q285 236 257.0 231.0Q229 226 205.5 217.0Q182 208 167.5 192.0Q153 176 153 149Q153 118 173.5 100.0Q194 82 228 82Z"/><path transform="translate(2476.8,0)" d="M50 0V286L49 522H159L152 313H164Q172 389 194.0 438.0Q216 487 254.0 511.5Q292 536 347 536Q435 536 478.5 475.0Q522 414 522 289V0H395V277Q395 353 373.0 389.5Q351 426 304 426Q264 426 235.5 399.0Q207 372 192.0 319.0Q177 266 176 187V0Z"/><path transform="translate(3029.8,0)" d="M238 -14Q179 -14 132.5 17.0Q86 48 59.0 110.0Q32 172 32 264Q32 351 56.5 411.5Q81 472 126.5 504.0Q172 536 234 536Q284 536 320.0 515.0Q356 494 378.5 452.5Q401 411 411 349H424Q418 387 413.5 420.5Q409 454 406.5 484.5Q404 515 404 540V696H531L530 221L531 0H420L424 163H413Q401 105 378.0 65.5Q355 26 320.0 6.0Q285 -14 238 -14ZM277 91Q307 91 331.0 105.0Q355 119 371.0 143.0Q387 167 395.5 196.0Q404 225 404 255V265Q404 287 398.5 310.0Q393 333 383.0 354.5Q373 376 357.5 392.5Q342 409 322.0 419.0Q302 429 277 429Q241 429 215.0 407.0Q189 385 175.0 346.5Q161 308 161 258Q161 209 175.0 171.0Q189 133 214.5 112.0Q240 91 277 91Z"/></g><g transform="translate(212.4,128.0) scale(0.02300,-0.02300)" fill="url(#aurora)"><path transform="translate(0.0,0)" d="M11 0 239 660H410L637 0H500L328 556H320L148 0ZM129 133V225H535V133Z"/><path transform="translate(636.0,0)" d="M55 0V660H183V0Z"/></g><g transform="translate(232.3,128.0) scale(0.02300,-0.02300)" fill="#54515E"><path transform="translate(204.0,0)" d="M264 -14Q212 -14 168.5 -3.5Q125 7 94.0 29.5Q63 52 46.0 87.0Q29 122 30 170L138 188Q139 152 155.0 128.0Q171 104 200.0 92.5Q229 81 269 81Q315 81 342.5 96.5Q370 112 370 141Q370 162 356.5 174.0Q343 186 316.0 194.5Q289 203 248 212Q205 221 166.5 232.5Q128 244 98.5 261.0Q69 278 52.0 305.0Q35 332 35 373Q35 423 62.0 459.5Q89 496 138.0 516.0Q187 536 252 536Q313 536 362.5 517.0Q412 498 441.5 459.0Q471 420 469 358L361 340Q362 373 348.0 395.5Q334 418 308.0 429.5Q282 441 247 441Q204 441 179.0 424.5Q154 408 154 381Q154 359 169.5 345.5Q185 332 213.5 324.0Q242 316 282 308Q318 301 354.5 291.0Q391 281 422.0 264.0Q453 247 471.5 218.0Q490 189 490 145Q490 96 463.0 60.5Q436 25 385.5 5.5Q335 -14 264 -14Z"/><path transform="translate(704.9,0)" d="M239 -11Q157 -11 116.5 32.5Q76 76 76 166V421H10L11 511H36Q79 514 97.5 535.0Q116 556 120 598L125 638H200V522H332V418H200V175Q200 136 218.0 119.0Q236 102 267 102Q284 102 301.5 106.5Q319 111 333 121V5Q305 -4 282.0 -7.5Q259 -11 239 -11Z"/><path transform="translate(1051.9,0)" d="M218 -14Q129 -14 86.5 49.0Q44 112 44 241V522H171V246Q171 167 192.5 132.0Q214 97 260 97Q288 97 311.0 111.0Q334 125 350.0 153.0Q366 181 375.0 223.0Q384 265 384 322V522H511V240V0H402L408 199H397Q388 125 365.5 78.0Q343 31 307.0 8.5Q271 -14 218 -14Z"/><path transform="translate(1599.8,0)" d="M238 -14Q179 -14 132.5 17.0Q86 48 59.0 110.0Q32 172 32 264Q32 351 56.5 411.5Q81 472 126.5 504.0Q172 536 234 536Q284 536 320.0 515.0Q356 494 378.5 452.5Q401 411 411 349H424Q418 387 413.5 420.5Q409 454 406.5 484.5Q404 515 404 540V696H531L530 221L531 0H420L424 163H413Q401 105 378.0 65.5Q355 26 320.0 6.0Q285 -14 238 -14ZM277 91Q307 91 331.0 105.0Q355 119 371.0 143.0Q387 167 395.5 196.0Q404 225 404 255V265Q404 287 398.5 310.0Q393 333 383.0 354.5Q373 376 357.5 392.5Q342 409 322.0 419.0Q302 429 277 429Q241 429 215.0 407.0Q189 385 175.0 346.5Q161 308 161 258Q161 209 175.0 171.0Q189 133 214.5 112.0Q240 91 277 91Z"/><path transform="translate(2167.8,0)" d="M50 0V522H176V0ZM113 583Q75 583 55.0 599.0Q35 615 35 646Q35 677 55.0 693.0Q75 709 113 709Q151 709 171.0 692.5Q191 676 191 645Q191 616 171.0 599.5Q151 583 113 583Z"/><path transform="translate(2380.7,0)" d="M288 -14Q213 -14 155.0 17.0Q97 48 64.0 109.0Q31 170 31 261Q31 354 65.0 415.0Q99 476 157.0 506.0Q215 536 288 536Q362 536 420.0 505.0Q478 474 511.0 413.0Q544 352 544 260Q544 167 510.5 106.0Q477 45 418.5 15.5Q360 -14 288 -14ZM291 83Q331 83 358.5 103.0Q386 123 401.0 161.5Q416 200 416 254Q416 311 400.5 351.0Q385 391 355.5 413.0Q326 435 285 435Q245 435 217.0 414.5Q189 394 174.0 355.5Q159 317 159 263Q159 178 194.0 130.5Q229 83 291 83Z"/></g>
  <g transform="translate(126.0,158.0) scale(0.01500,-0.01500)" fill="#54515E"><path transform="translate(0.0,0)" d="M24 0 257 660H388L620 0H521L327 583H317L123 0ZM134 147V218H522V147Z"/><path transform="translate(657.3,0)" d="M77 0V660H170V0Z"/><path transform="translate(1174.0,0)" d="M295 -13Q234 -13 187.5 6.0Q141 25 109.5 59.5Q78 94 62.0 142.5Q46 191 46 251Q46 311 61.5 361.5Q77 412 108.0 450.0Q139 488 184.0 509.0Q229 530 287 530Q339 530 381.0 512.5Q423 495 452.0 459.5Q481 424 495.5 371.5Q510 319 506 250L103 246V308L448 312L420 271Q424 331 408.5 371.0Q393 411 361.5 431.5Q330 452 287 452Q240 452 206.0 428.0Q172 404 153.5 359.5Q135 315 135 252Q135 160 176.5 111.0Q218 62 297 62Q331 62 355.0 71.0Q379 80 395.0 95.0Q411 110 420.5 129.0Q430 148 434 169L515 153Q508 115 491.0 84.5Q474 54 446.5 32.5Q419 11 381.0 -1.0Q343 -13 295 -13Z"/><path transform="translate(1740.3,0)" d="M255 -13Q192 -13 145.0 20.0Q98 53 72.5 114.0Q47 175 47 259Q47 340 71.0 401.0Q95 462 141.0 496.0Q187 530 252 530Q307 530 342.5 506.5Q378 483 400.0 443.5Q422 404 432 355H447Q442 389 438.0 422.0Q434 455 431.0 485.5Q428 516 428 540V695H520V248L521 0H438L444 149H430Q418 100 395.5 63.5Q373 27 338.5 7.0Q304 -13 255 -13ZM275 66Q313 66 341.5 84.0Q370 102 389.5 130.0Q409 158 418.5 190.0Q428 222 428 251V262Q428 281 422.5 305.5Q417 330 406.0 355.5Q395 381 377.0 402.0Q359 423 334.0 436.5Q309 450 278 450Q234 450 203.5 425.0Q173 400 157.0 356.5Q141 313 141 256Q141 199 157.0 156.0Q173 113 203.0 89.5Q233 66 275 66Z"/><path transform="translate(2344.7,0)" d="M237 -13Q150 -13 106.5 48.5Q63 110 63 235V517H155V241Q155 152 180.5 110.0Q206 68 263 68Q295 68 320.0 83.5Q345 99 364.0 129.0Q383 159 394.0 201.0Q405 243 409 296V517H500V229V0H418L428 181H414Q403 114 379.5 71.0Q356 28 320.5 7.5Q285 -13 237 -13Z"/><path transform="translate(2928.0,0)" d="M295 -13Q229 -13 182.0 8.0Q135 29 105.0 66.0Q75 103 60.5 151.5Q46 200 46 254Q46 312 61.5 361.5Q77 411 107.5 449.5Q138 488 183.5 509.0Q229 530 289 530Q352 530 397.5 507.5Q443 485 469.5 446.0Q496 407 502 357L416 336Q414 367 399.0 393.5Q384 420 356.0 436.0Q328 452 288 452Q253 452 225.5 438.5Q198 425 178.5 399.5Q159 374 149.0 338.0Q139 302 139 256Q139 195 156.5 152.0Q174 109 209.5 86.0Q245 63 296 63Q339 63 368.0 79.0Q397 95 413.0 123.0Q429 151 432 187L517 172Q512 128 494.5 93.5Q477 59 448.5 35.5Q420 12 381.5 -0.5Q343 -13 295 -13Z"/><path transform="translate(3482.3,0)" d="M192 -13Q150 -13 116.0 3.0Q82 19 62.0 51.0Q42 83 42 133Q42 172 56.5 200.5Q71 229 100.0 248.0Q129 267 172.5 280.0Q216 293 275 301Q318 307 342.5 312.0Q367 317 377.0 328.0Q387 339 387 360Q387 401 359.5 427.0Q332 453 278 453Q249 453 219.0 443.0Q189 433 167.5 408.5Q146 384 141 342L57 366Q64 407 83.0 437.0Q102 467 131.0 488.0Q160 509 198.0 519.5Q236 530 280 530Q344 530 388.0 508.0Q432 486 454.5 440.5Q477 395 477 324V214Q478 181 479.0 144.0Q480 107 482.0 70.0Q484 33 487 0H402Q401 36 400.0 71.0Q399 106 399 142H387Q374 100 348.5 65.0Q323 30 284.0 8.5Q245 -13 192 -13ZM219 61Q243 61 267.5 70.0Q292 79 315.0 97.0Q338 115 357.0 143.0Q376 171 388 209V288L415 287Q400 271 374.0 262.5Q348 254 316.0 249.5Q284 245 251.5 239.0Q219 233 192.0 222.5Q165 212 149.0 193.0Q133 174 133 141Q133 102 156.5 81.5Q180 61 219 61Z"/><path transform="translate(4038.7,0)" d="M234 -10Q163 -10 127.5 29.0Q92 68 92 147V441H18L19 514H61Q88 515 100.5 526.0Q113 537 116 562L124 632H181V517H326V439H181V150Q181 110 199.5 92.0Q218 74 252 74Q270 74 290.0 79.0Q310 84 328 98V8Q302 -2 278.5 -6.0Q255 -10 234 -10Z"/><path transform="translate(4412.0,0)" d="M70 0V517H161V0ZM116 600Q85 600 69.5 613.0Q54 626 54 651Q54 676 70.0 689.0Q86 702 116 702Q147 702 163.0 689.0Q179 676 179 651Q179 626 163.0 613.0Q147 600 116 600Z"/><path transform="translate(4658.3,0)" d="M296 -13Q223 -13 166.5 19.0Q110 51 78.0 111.5Q46 172 46 260Q46 351 79.0 410.5Q112 470 168.0 500.0Q224 530 294 530Q365 530 421.5 499.0Q478 468 511.0 407.0Q544 346 544 256Q544 167 511.5 107.0Q479 47 422.5 17.0Q366 -13 296 -13ZM299 62Q346 62 380.5 85.0Q415 108 433.5 151.0Q452 194 452 253Q452 315 432.5 359.5Q413 404 377.5 428.5Q342 453 292 453Q245 453 210.5 430.5Q176 408 157.0 365.0Q138 322 138 262Q138 169 181.0 115.5Q224 62 299 62Z"/><path transform="translate(5260.7,0)" d="M70 0V300V517H153L142 331H157Q169 399 192.0 443.0Q215 487 252.5 508.5Q290 530 340 530Q427 530 470.5 468.0Q514 406 514 282V0H422V275Q422 364 395.5 406.0Q369 448 315 448Q267 448 233.5 417.5Q200 387 181.5 333.5Q163 280 161 210V0Z"/><path transform="translate(5851.0,0)" d="M-1 -135Q17 -88 24.5 -51.5Q32 -15 33.5 17.0Q35 49 35 80H122Q122 29 115.0 -10.5Q108 -50 96.5 -80.5Q85 -111 72 -135Z"/><path transform="translate(6265.7,0)" d="M295 -13Q229 -13 182.0 8.0Q135 29 105.0 66.0Q75 103 60.5 151.5Q46 200 46 254Q46 312 61.5 361.5Q77 411 107.5 449.5Q138 488 183.5 509.0Q229 530 289 530Q352 530 397.5 507.5Q443 485 469.5 446.0Q496 407 502 357L416 336Q414 367 399.0 393.5Q384 420 356.0 436.0Q328 452 288 452Q253 452 225.5 438.5Q198 425 178.5 399.5Q159 374 149.0 338.0Q139 302 139 256Q139 195 156.5 152.0Q174 109 209.5 86.0Q245 63 296 63Q339 63 368.0 79.0Q397 95 413.0 123.0Q429 151 432 187L517 172Q512 128 494.5 93.5Q477 59 448.5 35.5Q420 12 381.5 -0.5Q343 -13 295 -13Z"/><path transform="translate(6820.0,0)" d="M296 -13Q223 -13 166.5 19.0Q110 51 78.0 111.5Q46 172 46 260Q46 351 79.0 410.5Q112 470 168.0 500.0Q224 530 294 530Q365 530 421.5 499.0Q478 468 511.0 407.0Q544 346 544 256Q544 167 511.5 107.0Q479 47 422.5 17.0Q366 -13 296 -13ZM299 62Q346 62 380.5 85.0Q415 108 433.5 151.0Q452 194 452 253Q452 315 432.5 359.5Q413 404 377.5 428.5Q342 453 292 453Q245 453 210.5 430.5Q176 408 157.0 365.0Q138 322 138 262Q138 169 181.0 115.5Q224 62 299 62Z"/><path transform="translate(7422.3,0)" d="M70 0V300V517H153L142 331H157Q169 399 192.0 443.0Q215 487 252.5 508.5Q290 530 340 530Q427 530 470.5 468.0Q514 406 514 282V0H422V275Q422 364 395.5 406.0Q369 448 315 448Q267 448 233.5 417.5Q200 387 181.5 333.5Q163 280 161 210V0Z"/><path transform="translate(8012.7,0)" d="M266 -13Q213 -13 171.0 -1.5Q129 10 100.5 31.5Q72 53 57.0 85.0Q42 117 42 158L121 175Q119 138 137.0 112.5Q155 87 189.0 74.0Q223 61 270 61Q330 61 362.5 81.0Q395 101 395 136Q395 164 377.0 179.5Q359 195 327.0 204.0Q295 213 253 221Q216 230 180.0 240.0Q144 250 114.5 266.0Q85 282 67.5 309.0Q50 336 50 376Q50 423 74.5 457.5Q99 492 145.0 511.0Q191 530 255 530Q317 530 362.5 511.0Q408 492 434.5 455.0Q461 418 463 366L383 348Q383 384 366.5 408.0Q350 432 320.0 444.0Q290 456 251 456Q198 456 167.5 436.0Q137 416 137 381Q137 353 155.5 337.0Q174 321 206.0 312.5Q238 304 277 296Q316 288 352.5 278.5Q389 269 418.0 252.5Q447 236 464.0 209.0Q481 182 481 140Q481 91 454.5 56.5Q428 22 379.5 4.5Q331 -13 266 -13Z"/><path transform="translate(8545.0,0)" d="M237 -13Q150 -13 106.5 48.5Q63 110 63 235V517H155V241Q155 152 180.5 110.0Q206 68 263 68Q295 68 320.0 83.5Q345 99 364.0 129.0Q383 159 394.0 201.0Q405 243 409 296V517H500V229V0H418L428 181H414Q403 114 379.5 71.0Q356 28 320.5 7.5Q285 -13 237 -13Z"/><path transform="translate(9128.3,0)" d="M70 0V695H161V0Z"/><path transform="translate(9372.7,0)" d="M234 -10Q163 -10 127.5 29.0Q92 68 92 147V441H18L19 514H61Q88 515 100.5 526.0Q113 537 116 562L124 632H181V517H326V439H181V150Q181 110 199.5 92.0Q218 74 252 74Q270 74 290.0 79.0Q310 84 328 98V8Q302 -2 278.5 -6.0Q255 -10 234 -10Z"/><path transform="translate(9746.0,0)" d="M70 0V517H161V0ZM116 600Q85 600 69.5 613.0Q54 626 54 651Q54 676 70.0 689.0Q86 702 116 702Q147 702 163.0 689.0Q179 676 179 651Q179 626 163.0 613.0Q147 600 116 600Z"/><path transform="translate(9992.3,0)" d="M70 0V300V517H153L142 331H157Q169 399 192.0 443.0Q215 487 252.5 508.5Q290 530 340 530Q427 530 470.5 468.0Q514 406 514 282V0H422V275Q422 364 395.5 406.0Q369 448 315 448Q267 448 233.5 417.5Q200 387 181.5 333.5Q163 280 161 210V0Z"/><path transform="translate(10582.7,0)" d="M266 -169Q182 -169 130.5 -156.0Q79 -143 55.5 -118.0Q32 -93 32 -57Q32 -12 67.5 17.0Q103 46 176 57V73Q121 73 94.0 86.0Q67 99 67 125Q67 152 94.0 171.0Q121 190 182 204V221Q121 224 89.0 260.0Q57 296 57 352Q57 403 84.5 440.5Q112 478 163.0 498.5Q214 519 285 519H533V441L370 465V449Q431 437 461.0 407.5Q491 378 491 332Q491 289 466.0 257.0Q441 225 393.0 207.0Q345 189 275 189Q260 189 245.0 190.5Q230 192 207 196Q176 180 160.0 166.0Q144 152 144 141Q144 131 157.5 125.5Q171 120 191.5 118.0Q212 116 230 116H358Q377 116 407.5 112.5Q438 109 469.0 96.5Q500 84 521.0 57.5Q542 31 542 -17Q542 -70 510.5 -103.5Q479 -137 417.5 -153.0Q356 -169 266 -169ZM266 -92Q335 -92 377.5 -83.5Q420 -75 439.0 -57.5Q458 -40 458 -14Q458 11 445.0 25.0Q432 39 412.5 44.5Q393 50 372.5 51.5Q352 53 337 53H217Q160 39 139.0 18.0Q118 -3 118 -29Q118 -56 137.5 -69.5Q157 -83 190.5 -87.5Q224 -92 266 -92ZM278 248Q339 248 371.0 274.5Q403 301 403 346Q403 393 370.0 423.0Q337 453 275 453Q215 453 181.0 423.5Q147 394 147 349Q147 319 162.5 296.5Q178 274 207.5 261.0Q237 248 278 248Z"/><path transform="translate(11168.0,0)" d="M-1 -135Q17 -88 24.5 -51.5Q32 -15 33.5 17.0Q35 49 35 80H122Q122 29 115.0 -10.5Q108 -50 96.5 -80.5Q85 -111 72 -135Z"/><path transform="translate(11582.7,0)" d="M192 -13Q150 -13 116.0 3.0Q82 19 62.0 51.0Q42 83 42 133Q42 172 56.5 200.5Q71 229 100.0 248.0Q129 267 172.5 280.0Q216 293 275 301Q318 307 342.5 312.0Q367 317 377.0 328.0Q387 339 387 360Q387 401 359.5 427.0Q332 453 278 453Q249 453 219.0 443.0Q189 433 167.5 408.5Q146 384 141 342L57 366Q64 407 83.0 437.0Q102 467 131.0 488.0Q160 509 198.0 519.5Q236 530 280 530Q344 530 388.0 508.0Q432 486 454.5 440.5Q477 395 477 324V214Q478 181 479.0 144.0Q480 107 482.0 70.0Q484 33 487 0H402Q401 36 400.0 71.0Q399 106 399 142H387Q374 100 348.5 65.0Q323 30 284.0 8.5Q245 -13 192 -13ZM219 61Q243 61 267.5 70.0Q292 79 315.0 97.0Q338 115 357.0 143.0Q376 171 388 209V288L415 287Q400 271 374.0 262.5Q348 254 316.0 249.5Q284 245 251.5 239.0Q219 233 192.0 222.5Q165 212 149.0 193.0Q133 174 133 141Q133 102 156.5 81.5Q180 61 219 61Z"/><path transform="translate(12139.0,0)" d="M70 0V300V517H153L142 331H157Q169 399 192.0 443.0Q215 487 252.5 508.5Q290 530 340 530Q427 530 470.5 468.0Q514 406 514 282V0H422V275Q422 364 395.5 406.0Q369 448 315 448Q267 448 233.5 417.5Q200 387 181.5 333.5Q163 280 161 210V0Z"/><path transform="translate(12729.3,0)" d="M255 -13Q192 -13 145.0 20.0Q98 53 72.5 114.0Q47 175 47 259Q47 340 71.0 401.0Q95 462 141.0 496.0Q187 530 252 530Q307 530 342.5 506.5Q378 483 400.0 443.5Q422 404 432 355H447Q442 389 438.0 422.0Q434 455 431.0 485.5Q428 516 428 540V695H520V248L521 0H438L444 149H430Q418 100 395.5 63.5Q373 27 338.5 7.0Q304 -13 255 -13ZM275 66Q313 66 341.5 84.0Q370 102 389.5 130.0Q409 158 418.5 190.0Q428 222 428 251V262Q428 281 422.5 305.5Q417 330 406.0 355.5Q395 381 377.0 402.0Q359 423 334.0 436.5Q309 450 278 450Q234 450 203.5 425.0Q173 400 157.0 356.5Q141 313 141 256Q141 199 157.0 156.0Q173 113 203.0 89.5Q233 66 275 66Z"/><path transform="translate(13590.0,0)" d="M336 -13Q287 -13 251.5 7.5Q216 28 193.5 64.5Q171 101 160 149H146L153 0H70V250V695H162V540Q162 514 159.5 483.5Q157 453 152.5 421.0Q148 389 143 355H159Q169 403 190.5 442.5Q212 482 248.5 506.0Q285 530 338 530Q402 530 448.0 496.0Q494 462 519.0 401.5Q544 341 544 258Q544 175 518.5 114.5Q493 54 447.0 20.5Q401 -13 336 -13ZM315 66Q357 66 387.5 89.5Q418 113 433.5 156.0Q449 199 449 256Q449 313 433.5 356.5Q418 400 388.0 425.0Q358 450 314 450Q282 450 257.0 437.0Q232 424 214.0 402.5Q196 381 184.5 356.0Q173 331 167.5 306.0Q162 281 162 261V250Q162 222 172.0 189.5Q182 157 201.5 129.0Q221 101 249.5 83.5Q278 66 315 66Z"/><path transform="translate(14194.3,0)" d="M237 -13Q150 -13 106.5 48.5Q63 110 63 235V517H155V241Q155 152 180.5 110.0Q206 68 263 68Q295 68 320.0 83.5Q345 99 364.0 129.0Q383 159 394.0 201.0Q405 243 409 296V517H500V229V0H418L428 181H414Q403 114 379.5 71.0Q356 28 320.5 7.5Q285 -13 237 -13Z"/><path transform="translate(14777.7,0)" d="M70 0V517H161V0ZM116 600Q85 600 69.5 613.0Q54 626 54 651Q54 676 70.0 689.0Q86 702 116 702Q147 702 163.0 689.0Q179 676 179 651Q179 626 163.0 613.0Q147 600 116 600Z"/><path transform="translate(15024.0,0)" d="M70 0V695H161V0Z"/><path transform="translate(15268.3,0)" d="M255 -13Q192 -13 145.0 20.0Q98 53 72.5 114.0Q47 175 47 259Q47 340 71.0 401.0Q95 462 141.0 496.0Q187 530 252 530Q307 530 342.5 506.5Q378 483 400.0 443.5Q422 404 432 355H447Q442 389 438.0 422.0Q434 455 431.0 485.5Q428 516 428 540V695H520V248L521 0H438L444 149H430Q418 100 395.5 63.5Q373 27 338.5 7.0Q304 -13 255 -13ZM275 66Q313 66 341.5 84.0Q370 102 389.5 130.0Q409 158 418.5 190.0Q428 222 428 251V262Q428 281 422.5 305.5Q417 330 406.0 355.5Q395 381 377.0 402.0Q359 423 334.0 436.5Q309 450 278 450Q234 450 203.5 425.0Q173 400 157.0 356.5Q141 313 141 256Q141 199 157.0 156.0Q173 113 203.0 89.5Q233 66 275 66Z"/><path transform="translate(15872.7,0)" d="M266 -13Q213 -13 171.0 -1.5Q129 10 100.5 31.5Q72 53 57.0 85.0Q42 117 42 158L121 175Q119 138 137.0 112.5Q155 87 189.0 74.0Q223 61 270 61Q330 61 362.5 81.0Q395 101 395 136Q395 164 377.0 179.5Q359 195 327.0 204.0Q295 213 253 221Q216 230 180.0 240.0Q144 250 114.5 266.0Q85 282 67.5 309.0Q50 336 50 376Q50 423 74.5 457.5Q99 492 145.0 511.0Q191 530 255 530Q317 530 362.5 511.0Q408 492 434.5 455.0Q461 418 463 366L383 348Q383 384 366.5 408.0Q350 432 320.0 444.0Q290 456 251 456Q198 456 167.5 436.0Q137 416 137 381Q137 353 155.5 337.0Q174 321 206.0 312.5Q238 304 277 296Q316 288 352.5 278.5Q389 269 418.0 252.5Q447 236 464.0 209.0Q481 182 481 140Q481 91 454.5 56.5Q428 22 379.5 4.5Q331 -13 266 -13Z"/><path transform="translate(16661.3,0)" d="M115 0V361H25V434L155 426V441Q126 450 106.5 467.5Q87 485 77.5 509.0Q68 533 68 561Q68 602 87.0 633.0Q106 664 140.5 682.5Q175 701 223 701Q261 701 292.5 689.5Q324 678 345 659L334 573Q312 593 285.5 604.5Q259 616 232 616Q197 616 176.0 594.0Q155 572 155 531Q155 506 163.5 486.5Q172 467 187.0 454.5Q202 442 218 437H336V361H205V0Z"/><path transform="translate(17033.7,0)" d="M296 -13Q223 -13 166.5 19.0Q110 51 78.0 111.5Q46 172 46 260Q46 351 79.0 410.5Q112 470 168.0 500.0Q224 530 294 530Q365 530 421.5 499.0Q478 468 511.0 407.0Q544 346 544 256Q544 167 511.5 107.0Q479 47 422.5 17.0Q366 -13 296 -13ZM299 62Q346 62 380.5 85.0Q415 108 433.5 151.0Q452 194 452 253Q452 315 432.5 359.5Q413 404 377.5 428.5Q342 453 292 453Q245 453 210.5 430.5Q176 408 157.0 365.0Q138 322 138 262Q138 169 181.0 115.5Q224 62 299 62Z"/><path transform="translate(17636.0,0)" d="M70 0V270V517H153L143 321H158Q166 387 185.0 433.5Q204 480 235.5 504.5Q267 529 312 529Q324 529 337.5 527.0Q351 525 367 519L362 423Q347 430 332.0 432.5Q317 435 303 435Q263 435 235.0 408.5Q207 382 188.5 335.5Q170 289 161 228V0Z"/><path transform="translate(18289.7,0)" d="M70 0V296V517H152L142 331H156Q168 399 190.0 443.0Q212 487 245.0 508.5Q278 530 323 530Q373 530 405.0 504.5Q437 479 452.0 435.0Q467 391 465 333H479Q489 399 511.5 442.5Q534 486 569.0 508.0Q604 530 650 530Q690 530 720.0 514.0Q750 498 771.0 467.0Q792 436 802.0 390.0Q812 344 812 284V0H721V272Q721 331 710.5 370.0Q700 409 678.5 428.0Q657 447 625 447Q585 447 555.5 419.0Q526 391 508.0 341.5Q490 292 486 226V0H396V267Q396 327 385.5 367.0Q375 407 354.0 427.0Q333 447 300 447Q259 447 229.5 418.5Q200 390 182.5 339.0Q165 288 162 223V0Z"/><path transform="translate(19178.0,0)" d="M296 -13Q223 -13 166.5 19.0Q110 51 78.0 111.5Q46 172 46 260Q46 351 79.0 410.5Q112 470 168.0 500.0Q224 530 294 530Q365 530 421.5 499.0Q478 468 511.0 407.0Q544 346 544 256Q544 167 511.5 107.0Q479 47 422.5 17.0Q366 -13 296 -13ZM299 62Q346 62 380.5 85.0Q415 108 433.5 151.0Q452 194 452 253Q452 315 432.5 359.5Q413 404 377.5 428.5Q342 453 292 453Q245 453 210.5 430.5Q176 408 157.0 365.0Q138 322 138 262Q138 169 181.0 115.5Q224 62 299 62Z"/><path transform="translate(19780.3,0)" d="M255 -13Q192 -13 145.0 20.0Q98 53 72.5 114.0Q47 175 47 259Q47 340 71.0 401.0Q95 462 141.0 496.0Q187 530 252 530Q307 530 342.5 506.5Q378 483 400.0 443.5Q422 404 432 355H447Q442 389 438.0 422.0Q434 455 431.0 485.5Q428 516 428 540V695H520V248L521 0H438L444 149H430Q418 100 395.5 63.5Q373 27 338.5 7.0Q304 -13 255 -13ZM275 66Q313 66 341.5 84.0Q370 102 389.5 130.0Q409 158 418.5 190.0Q428 222 428 251V262Q428 281 422.5 305.5Q417 330 406.0 355.5Q395 381 377.0 402.0Q359 423 334.0 436.5Q309 450 278 450Q234 450 203.5 425.0Q173 400 157.0 356.5Q141 313 141 256Q141 199 157.0 156.0Q173 113 203.0 89.5Q233 66 275 66Z"/><path transform="translate(20384.7,0)" d="M295 -13Q234 -13 187.5 6.0Q141 25 109.5 59.5Q78 94 62.0 142.5Q46 191 46 251Q46 311 61.5 361.5Q77 412 108.0 450.0Q139 488 184.0 509.0Q229 530 287 530Q339 530 381.0 512.5Q423 495 452.0 459.5Q481 424 495.5 371.5Q510 319 506 250L103 246V308L448 312L420 271Q424 331 408.5 371.0Q393 411 361.5 431.5Q330 452 287 452Q240 452 206.0 428.0Q172 404 153.5 359.5Q135 315 135 252Q135 160 176.5 111.0Q218 62 297 62Q331 62 355.0 71.0Q379 80 395.0 95.0Q411 110 420.5 129.0Q430 148 434 169L515 153Q508 115 491.0 84.5Q474 54 446.5 32.5Q419 11 381.0 -1.0Q343 -13 295 -13Z"/><path transform="translate(20951.0,0)" d="M70 0V270V517H153L143 321H158Q166 387 185.0 433.5Q204 480 235.5 504.5Q267 529 312 529Q324 529 337.5 527.0Q351 525 367 519L362 423Q347 430 332.0 432.5Q317 435 303 435Q263 435 235.0 408.5Q207 382 188.5 335.5Q170 289 161 228V0Z"/><path transform="translate(21348.3,0)" d="M70 0V300V517H153L142 331H157Q169 399 192.0 443.0Q215 487 252.5 508.5Q290 530 340 530Q427 530 470.5 468.0Q514 406 514 282V0H422V275Q422 364 395.5 406.0Q369 448 315 448Q267 448 233.5 417.5Q200 387 181.5 333.5Q163 280 161 210V0Z"/><path transform="translate(22195.0,0)" d="M234 -10Q163 -10 127.5 29.0Q92 68 92 147V441H18L19 514H61Q88 515 100.5 526.0Q113 537 116 562L124 632H181V517H326V439H181V150Q181 110 199.5 92.0Q218 74 252 74Q270 74 290.0 79.0Q310 84 328 98V8Q302 -2 278.5 -6.0Q255 -10 234 -10Z"/><path transform="translate(22568.3,0)" d="M295 -13Q234 -13 187.5 6.0Q141 25 109.5 59.5Q78 94 62.0 142.5Q46 191 46 251Q46 311 61.5 361.5Q77 412 108.0 450.0Q139 488 184.0 509.0Q229 530 287 530Q339 530 381.0 512.5Q423 495 452.0 459.5Q481 424 495.5 371.5Q510 319 506 250L103 246V308L448 312L420 271Q424 331 408.5 371.0Q393 411 361.5 431.5Q330 452 287 452Q240 452 206.0 428.0Q172 404 153.5 359.5Q135 315 135 252Q135 160 176.5 111.0Q218 62 297 62Q331 62 355.0 71.0Q379 80 395.0 95.0Q411 110 420.5 129.0Q430 148 434 169L515 153Q508 115 491.0 84.5Q474 54 446.5 32.5Q419 11 381.0 -1.0Q343 -13 295 -13Z"/><path transform="translate(23134.7,0)" d="M192 -13Q150 -13 116.0 3.0Q82 19 62.0 51.0Q42 83 42 133Q42 172 56.5 200.5Q71 229 100.0 248.0Q129 267 172.5 280.0Q216 293 275 301Q318 307 342.5 312.0Q367 317 377.0 328.0Q387 339 387 360Q387 401 359.5 427.0Q332 453 278 453Q249 453 219.0 443.0Q189 433 167.5 408.5Q146 384 141 342L57 366Q64 407 83.0 437.0Q102 467 131.0 488.0Q160 509 198.0 519.5Q236 530 280 530Q344 530 388.0 508.0Q432 486 454.5 440.5Q477 395 477 324V214Q478 181 479.0 144.0Q480 107 482.0 70.0Q484 33 487 0H402Q401 36 400.0 71.0Q399 106 399 142H387Q374 100 348.5 65.0Q323 30 284.0 8.5Q245 -13 192 -13ZM219 61Q243 61 267.5 70.0Q292 79 315.0 97.0Q338 115 357.0 143.0Q376 171 388 209V288L415 287Q400 271 374.0 262.5Q348 254 316.0 249.5Q284 245 251.5 239.0Q219 233 192.0 222.5Q165 212 149.0 193.0Q133 174 133 141Q133 102 156.5 81.5Q180 61 219 61Z"/><path transform="translate(23691.0,0)" d="M70 0V296V517H152L142 331H156Q168 399 190.0 443.0Q212 487 245.0 508.5Q278 530 323 530Q373 530 405.0 504.5Q437 479 452.0 435.0Q467 391 465 333H479Q489 399 511.5 442.5Q534 486 569.0 508.0Q604 530 650 530Q690 530 720.0 514.0Q750 498 771.0 467.0Q792 436 802.0 390.0Q812 344 812 284V0H721V272Q721 331 710.5 370.0Q700 409 678.5 428.0Q657 447 625 447Q585 447 555.5 419.0Q526 391 508.0 341.5Q490 292 486 226V0H396V267Q396 327 385.5 367.0Q375 407 354.0 427.0Q333 447 300 447Q259 447 229.5 418.5Q200 390 182.5 339.0Q165 288 162 223V0Z"/><path transform="translate(24579.3,0)" d="M266 -13Q213 -13 171.0 -1.5Q129 10 100.5 31.5Q72 53 57.0 85.0Q42 117 42 158L121 175Q119 138 137.0 112.5Q155 87 189.0 74.0Q223 61 270 61Q330 61 362.5 81.0Q395 101 395 136Q395 164 377.0 179.5Q359 195 327.0 204.0Q295 213 253 221Q216 230 180.0 240.0Q144 250 114.5 266.0Q85 282 67.5 309.0Q50 336 50 376Q50 423 74.5 457.5Q99 492 145.0 511.0Q191 530 255 530Q317 530 362.5 511.0Q408 492 434.5 455.0Q461 418 463 366L383 348Q383 384 366.5 408.0Q350 432 320.0 444.0Q290 456 251 456Q198 456 167.5 436.0Q137 416 137 381Q137 353 155.5 337.0Q174 321 206.0 312.5Q238 304 277 296Q316 288 352.5 278.5Q389 269 418.0 252.5Q447 236 464.0 209.0Q481 182 481 140Q481 91 454.5 56.5Q428 22 379.5 4.5Q331 -13 266 -13Z"/></g>
</svg>
